<?xml version="1.0" standalone="no"?>
<!DOCTYPE svg PUBLIC "-//W3C//DTD SVG 20010904//EN"
 "http://www.w3.org/TR/2001/REC-SVG-20010904/DTD/svg10.dtd">
<svg version="1.0" xmlns="http://www.w3.org/2000/svg"
 width="590.000000pt" height="583.000000pt" viewBox="0 0 590.000000 583.000000"
 preserveAspectRatio="xMidYMid meet">

<g transform="translate(0.000000,583.000000) scale(0.100000,-0.100000)"
fill="#000000" stroke="none">
<path d="M2725 5804 c-319 -30 -518 -71 -756 -153 -486 -167 -918 -462 -1259
-857 -903 -1047 -933 -2601 -70 -3683 502 -630 1247 -1028 2044 -1091 1184
-93 2307 547 2831 1615 138 282 221 546 270 865 22 144 31 514 16 676 -91 967
-654 1818 -1508 2282 -319 173 -646 279 -1008 327 -114 15 -474 28 -560 19z
m600 -73 c687 -107 1301 -443 1741 -954 549 -637 790 -1459 668 -2285 -44
-302 -129 -569 -271 -854 -255 -510 -631 -907 -1148 -1211 -137 -80 -333 -166
-530 -232 -406 -136 -908 -171 -1357 -95 -579 99 -1118 380 -1535 802 -252
254 -402 467 -557 789 -177 367 -262 723 -273 1144 -13 500 87 935 316 1380
284 552 732 988 1296 1261 298 145 598 232 925 269 178 20 552 13 725 -14z"/>
<path d="M2681 4765 c-122 -146 -224 -265 -227 -265 -2 0 -106 84 -231 186
l-226 186 -801 -801 -801 -801 519 0 c490 0 518 -1 511 -17 -44 -105 -48 -123
-49 -198 -1 -74 2 -86 40 -165 22 -47 61 -111 87 -142 l45 -56 -171 -4 c-189
-5 -217 -12 -283 -70 -21 -18 -48 -55 -60 -83 l-24 -50 0 -503 c0 -543 -1
-533 54 -605 14 -19 50 -47 78 -63 l53 -29 1720 0 1720 0 47 27 c25 16 60 45
77 65 62 75 62 80 59 624 l-3 494 -31 55 c-37 66 -101 113 -174 129 -33 7
-241 11 -593 11 l-542 0 -220 220 c-183 183 -216 220 -195 220 57 1 70 32 71
172 0 79 3 109 10 98 6 -8 91 -148 190 -310 99 -162 183 -298 187 -302 5 -5
379 -7 832 -6 l823 3 -49 31 c-99 63 -561 358 -634 405 l-75 49 500 2 500 3
-215 151 c-118 83 -307 216 -420 296 -113 79 -335 236 -495 348 -159 112 -411
289 -560 394 -148 104 -319 224 -380 266 -60 42 -181 127 -268 188 -86 62
-161 112 -166 112 -5 0 -109 -119 -230 -265z m293 168 c41 -29 451 -318 736
-518 218 -153 776 -544 1025 -720 165 -116 351 -247 413 -290 l113 -80 -97 -3
-98 -3 -213 213 c-202 202 -214 212 -230 195 -17 -16 -8 -27 177 -212 l195
-195 -65 0 -65 0 -212 212 c-202 202 -214 212 -230 195 -17 -16 -8 -27 177
-212 l195 -195 -69 0 -69 0 -205 210 c-112 116 -209 210 -216 210 -7 0 -17 -5
-24 -12 -10 -10 30 -55 185 -210 l198 -198 -71 0 -71 0 -208 211 c-161 163
-212 210 -223 203 -8 -6 -15 -12 -16 -15 0 -4 84 -93 188 -200 155 -160 185
-195 167 -197 -21 -3 -63 20 -322 186 -375 241 -684 437 -690 440 -4 2 -12 -6
-18 -17 -12 -21 -49 4 489 -339 449 -286 460 -294 452 -306 -6 -7 39 -88 124
-226 73 -118 133 -219 133 -225 1 -6 -28 -9 -73 -7 l-75 4 -135 221 c-75 122
-140 228 -144 235 -10 14 -42 6 -42 -11 0 -5 59 -107 131 -224 72 -118 128
-217 125 -220 -3 -3 -36 -5 -73 -5 -52 0 -70 4 -80 17 -7 10 -72 116 -145 236
-73 121 -136 219 -139 219 -3 0 -12 -6 -21 -12 -14 -11 1 -40 118 -228 73
-118 133 -219 133 -225 1 -6 -28 -9 -71 -8 l-72 1 -143 234 c-79 128 -148 233
-153 232 -26 -3 -30 -5 -30 -16 0 -7 60 -110 134 -228 89 -144 129 -217 120
-220 -7 -3 -41 -4 -76 -2 l-63 4 -133 217 c-161 264 -153 254 -175 245 -9 -3
-17 -10 -17 -14 0 -4 60 -106 134 -226 74 -121 133 -220 132 -221 -4 -4 -145
-7 -149 -3 -3 3 -94 151 -202 330 -109 179 -203 331 -210 339 -8 8 -21 10 -34
6 -20 -6 -21 -12 -21 -165 0 -169 -4 -181 -47 -153 -31 20 -43 9 -43 -40 0
-41 4 -46 207 -249 l208 -208 -68 0 -67 0 0 55 c0 52 -1 55 -25 55 -24 0 -25
-3 -25 -55 l0 -55 -85 0 -85 0 0 55 c0 52 -1 55 -25 55 -24 0 -25 -3 -25 -55
l0 -55 -85 0 -85 0 0 55 c0 52 -1 55 -25 55 -24 0 -25 -3 -25 -55 l0 -55 -90
0 -90 0 0 55 c0 48 -2 55 -20 55 -18 0 -20 -7 -20 -55 l0 -55 -69 0 -69 0 209
207 209 207 0 143 0 143 -25 0 c-18 0 -25 -5 -25 -19 0 -26 -46 -61 -81 -61
-34 0 -69 31 -69 60 0 15 -7 20 -25 20 l-25 0 0 -105 c0 -93 -2 -105 -17 -105
-10 0 -24 4 -32 9 -31 20 -41 1 -41 -79 l0 -77 -46 -7 c-26 -3 -61 -6 -78 -6
-50 -1 -113 -35 -183 -102 -70 -67 -113 -141 -113 -195 l0 -33 -140 0 c-131 0
-140 1 -131 18 20 36 408 411 452 436 27 15 71 30 105 34 l59 7 3 179 2 178
-27 -7 c-121 -29 -389 -162 -532 -263 -207 -146 -305 -280 -318 -431 l-6 -73
-23 29 c-13 15 -41 62 -61 102 -35 68 -38 82 -38 155 0 67 5 91 27 139 30 63
31 64 594 737 218 261 503 602 633 758 129 155 237 282 239 282 3 0 28 -17 56
-37z m-788 -278 c239 -197 236 -194 229 -205 -3 -6 -112 -137 -242 -293 -130
-155 -340 -407 -467 -559 l-231 -277 -99 -1 -99 0 19 23 c11 12 96 113 188
225 140 168 166 205 156 217 -7 8 -16 15 -20 15 -4 0 -96 -108 -206 -240
l-199 -240 -99 0 -98 0 44 53 c24 28 109 130 187 225 135 163 143 175 127 190
-16 16 -18 16 -34 -3 -9 -12 -100 -121 -201 -243 l-184 -222 -93 0 c-52 0 -94
3 -94 6 0 6 296 361 344 412 29 31 29 33 12 50 -21 20 -1 40 -258 -265 l-170
-203 -96 0 -97 0 744 744 c410 410 750 742 755 738 6 -3 88 -69 182 -147z
m194 -1299 l0 -124 -37 -7 c-92 -17 -142 -54 -354 -263 -113 -111 -215 -218
-225 -238 l-19 -35 -70 3 -70 3 0 105 c0 96 3 110 29 165 59 120 264 289 486
401 73 37 241 111 258 114 1 0 2 -56 2 -124z m348 -93 c15 3 35 9 45 12 15 6
17 -1 17 -71 l0 -79 -217 -217 -218 -218 -112 0 -113 0 0 30 c0 53 25 93 102
166 82 78 94 83 218 93 66 5 76 9 87 31 7 14 13 46 13 73 0 43 2 47 23 47 37
0 60 34 65 94 l4 54 30 -10 c16 -6 41 -8 56 -5z m1950 -218 c182 -115 328
-213 325 -217 -2 -4 -14 -6 -26 -4 -12 3 -104 5 -203 5 l-182 1 -118 193 c-65
105 -125 203 -133 216 -9 14 -11 22 -4 20 6 -2 160 -98 341 -214z m-18 -435
c24 -14 58 -45 75 -68 l30 -44 3 -496 c3 -558 4 -551 -68 -616 -21 -19 -56
-40 -77 -46 -27 -8 -519 -10 -1734 -8 l-1695 3 -42 27 c-22 15 -54 49 -69 75
l-28 48 -3 474 c-3 538 -2 548 66 614 73 71 -62 66 1807 64 l1690 -2 45 -25z"/>
<path d="M1440 2421 c-76 -24 -141 -83 -160 -148 -7 -25 -10 -131 -8 -309 l3
-271 30 -48 c22 -36 45 -57 84 -77 l53 -28 1462 0 c917 0 1474 4 1496 10 47
13 106 63 133 113 21 40 22 56 25 300 4 298 -2 332 -70 397 -76 75 35 70
-1577 69 -795 0 -1457 -4 -1471 -8z m2957 -56 c50 -21 72 -42 94 -90 16 -35
19 -69 19 -285 0 -136 -5 -261 -10 -282 -11 -39 -75 -104 -112 -113 -13 -3
-685 -4 -1494 -3 l-1471 3 -35 27 c-69 53 -73 71 -73 363 0 281 2 293 58 346
52 50 -19 48 1535 49 1285 0 1457 -2 1489 -15z"/>
</g>
</svg>
