<svg width="52" height="52" viewBox="0 0 52 52" fill="none" xmlns="http://www.w3.org/2000/svg">
<path d="M13.1363 22.6583H3.39844L17.5653 8.49023L17.8658 8.79077L4.4242 22.2335H13.1363V22.6583Z" fill="black"/>
<path d="M12.3426 18.1695L12.0156 17.8984L8.36077 22.3086L8.68778 22.5796L12.3426 18.1695Z" fill="black"/>
<path d="M14.6473 18.1695L14.3203 17.8984L10.6658 22.3082L10.9928 22.5792L14.6473 18.1695Z" fill="black"/>
<path d="M10.0888 18.1717L9.76367 17.8984L6.05592 22.3102L6.38106 22.5835L10.0888 18.1717Z" fill="black"/>
<path d="M22.1268 11.9997L17.6855 8.3418L17.4155 8.66969L21.8568 12.3276L22.1268 11.9997Z" fill="black"/>
<path d="M30.9313 27.877H30.3314L30.7083 28.2545L31.0057 27.9518L30.9313 27.877ZM28.6589 27.877V28.0893H29.0837V27.877H28.6589ZM26.6733 27.877V28.0893H27.098V27.877H26.6733ZM24.6876 27.877V28.0893H25.1123V27.877H24.6876ZM22.7019 27.877V28.0893H23.1266V27.877H22.7019ZM20.8489 27.877L20.7799 27.9465L21.0825 28.2439L21.4489 27.8775H20.8489V27.877ZM30.9313 27.877H30.3314L30.7083 28.2545L31.0057 27.9518L30.9313 27.877ZM28.6589 28.0893H29.0837V27.877H28.6589V28.0893ZM26.6733 28.0893H27.098V27.877H26.6733V28.0893ZM24.6876 28.0893H25.1123V27.877H24.6876V28.0893ZM22.7019 28.0893H23.1266V27.877H22.7019V28.0893ZM20.7799 27.9465L21.0825 28.2439L21.4489 27.8775H20.8489L20.7799 27.9465ZM42.8773 30.2133C42.8773 28.923 41.8314 27.877 40.5412 27.877H11.2072C9.91703 27.877 8.87109 28.9235 8.87109 30.2133V38.0877C8.87109 39.3779 9.91703 40.424 11.2072 40.424H40.5465C41.8314 40.424 42.8826 39.3774 42.8826 38.0877L42.8773 30.2133ZM42.4579 38.0877C42.4579 39.1443 41.5978 39.9992 40.5465 39.9992H11.2072C10.1506 39.9992 9.29584 39.1448 9.29584 38.0877V30.2133C9.29584 29.1566 10.1506 28.3017 11.2072 28.3017H40.5412C41.5978 28.3017 42.4526 29.1561 42.4579 30.2133V38.0877ZM20.8489 27.877L20.7799 27.9465L21.0825 28.2439L21.4489 27.8775H20.8489V27.877ZM22.7019 27.877V28.0893H23.1266V27.877H22.7019ZM24.6876 27.877V28.0893H25.1123V27.877H24.6876ZM26.6733 27.877V28.0893H27.098V27.877H26.6733ZM28.6589 27.877V28.0893H29.0837V27.877H28.6589ZM30.9313 27.877H30.3314L30.7083 28.2545L31.0057 27.9518L30.9313 27.877Z" fill="black"/>
<path d="M38.509 30.1758H13.2419C12.1163 30.1758 11.2031 31.0944 11.2031 32.2206V36.0808C11.2031 37.2065 12.1163 38.1256 13.2419 38.1256H38.509C39.6346 38.1256 40.5531 37.207 40.5531 36.0808V32.2206C40.5531 31.0949 39.6346 30.1758 38.509 30.1758ZM40.1283 36.0803C40.1283 36.9728 39.4009 37.6997 38.509 37.6997H13.2419C12.3499 37.6997 11.6279 36.9728 11.6279 36.0803V32.22C11.6279 31.3275 12.3499 30.6006 13.2419 30.6006H38.509C39.4009 30.6006 40.1283 31.3275 40.1283 32.22V36.0803Z" fill="black"/>
<path d="M45.1136 22.296L41.2695 18.4023L40.9673 18.7008L44.8114 22.5945L45.1136 22.296Z" fill="black"/>
<path d="M43.3273 22.2981L39.4863 18.4043L39.184 18.7026L43.0249 22.5964L43.3273 22.2981Z" fill="black"/>
<path d="M41.5226 22.2981L37.6816 18.4043L37.3793 18.7026L41.2202 22.5964L41.5226 22.2981Z" fill="black"/>
<path d="M39.7101 22.2981L35.8691 18.4043L35.5668 18.7026L39.4077 22.5964L39.7101 22.2981Z" fill="black"/>
<path d="M18.8564 28.0882H18.4316C18.4316 26.8802 18.6748 26.5903 19.2742 25.9951L19.3788 25.8916C20.334 24.9363 20.3839 24.9162 22.0261 24.8301L22.0999 24.8285C22.1243 24.8285 22.1609 24.8285 22.1699 24.8248C22.1848 24.8036 22.1837 24.7622 22.1827 24.7346L22.1816 24.6703C22.1821 24.0586 22.1864 23.3376 22.1864 23.3376L22.6111 23.3386C22.6111 23.4384 22.6956 23.5191 22.7991 23.5191C22.9005 23.5191 22.9807 23.4379 22.9807 23.3344L22.9775 21.6172H23.4022L23.4054 23.3344C23.4054 23.6705 23.1336 23.9439 22.7991 23.9439C22.7327 23.9439 22.6685 23.9333 22.6085 23.9137C22.6074 24.1457 22.6069 24.417 22.6064 24.6703C22.6106 24.8243 22.6159 24.9804 22.4779 25.1185C22.3446 25.2517 22.1991 25.2528 22.1025 25.2533L22.0484 25.2544C20.5373 25.3335 20.5373 25.3335 19.6793 26.1921L19.5737 26.2967C19.0369 26.8293 18.8564 27.0087 18.8564 28.0882Z" fill="black"/>
<path d="M31.0063 27.9518L30.709 28.2545L30.332 27.877H30.932L31.0063 27.9518Z" fill="black"/>
<path d="M21.0807 28.2459L20.7812 27.9454L24.8036 23.9349V21.6172H25.2283V24.1112L21.0807 28.2459Z" fill="black"/>
<path d="M48.2523 22.6562H38.5203V22.2315H46.9091L25.916 7.46497L22.1304 11.9995L21.8597 12.3287L13.301 22.5819C13.2851 22.5925 12.2285 23.8722 12.6639 25.3164C12.8922 26.0704 13.3541 26.7288 13.7045 27.1483C13.678 26.4522 13.7948 25.3536 14.6337 24.366C16.6831 21.9554 20.4633 20.5376 21.2862 20.3146L21.557 20.2456V20.5217C21.557 21.4031 21.5517 21.7961 21.5464 22.1571C21.5411 22.4492 21.5358 22.72 21.5358 23.2191V23.4315H21.3234C20.5482 23.4315 19.8474 23.7925 19.0616 24.5943L16.3645 27.2758C16.184 27.4568 15.9982 27.6952 15.8973 27.8758C15.8442 27.9666 15.8123 28.0409 15.8123 28.0935H15.3876C15.3876 28.0244 15.4035 27.9501 15.4301 27.8758C15.5628 27.4988 15.9716 27.0687 16.0619 26.9789L18.759 24.2922C19.3059 23.7347 20.0651 23.0922 21.111 23.0178C21.1163 22.6408 21.1163 22.4019 21.1217 22.1523C21.127 21.8338 21.1323 21.4939 21.1323 20.809C19.9802 21.186 16.768 22.5134 14.9575 24.6426C13.7842 26.0179 14.1983 27.7064 14.2036 27.7223L14.2461 27.8758L14.3523 28.3011H14.2567L13.8532 27.9347C13.8479 27.9294 13.8266 27.9081 13.7948 27.8763C13.5506 27.6379 12.632 26.671 12.2604 25.4396C11.8994 24.2396 12.3984 23.183 12.7276 22.6573C12.855 22.4502 12.9559 22.3228 12.9718 22.3069L13.0356 22.2325L21.5252 12.0537L21.8013 11.7298L25.8363 6.89258L48.2523 22.6562Z" fill="black"/>
<path d="M33.4215 26.6328L33.4746 26.7178L33.1136 26.9408L32.9277 26.6328H33.4215Z" fill="black"/>
<path d="M35.2862 26.6328L35.3393 26.7231L34.9782 26.9461L34.7871 26.6328H35.2862Z" fill="black"/>
<path d="M37.1285 26.6328L37.1975 26.7443L36.8365 26.962L36.6348 26.6328H37.1285Z" fill="black"/>
<path d="M38.5775 22.2322L39.2465 22.6564H38.5191L38.5032 22.6835L38.4395 22.6458L38.1262 22.4446L29.5039 16.9378L29.7322 16.582L38.5775 22.2322Z" fill="black"/>
<path d="M39.0069 26.6328L39.0706 26.7342L38.7043 26.9572L38.5078 26.6328H39.0069Z" fill="black"/>
<path d="M40.9339 26.739L40.5675 26.9572L40.3711 26.6328H40.8702L40.9339 26.739Z" fill="black"/>
<path d="M33.475 26.7185L33.114 26.9415L32.9281 26.6335L30.4434 22.5609L30.8044 22.3438L33.4219 26.6335L33.475 26.7185Z" fill="black"/>
<path d="M40.934 26.7399L40.5676 26.9582L40.3712 26.6337L37.9023 22.5824L38.1253 22.4449L38.2634 22.3594L38.4386 22.6461L40.8703 26.6337L40.934 26.7399Z" fill="black"/>
<path d="M39.0707 26.7352L38.7043 26.9582L38.5079 26.6337L36.0391 22.5776L36.4001 22.3594L39.007 26.6337L39.0707 26.7352Z" fill="black"/>
<path d="M35.3383 26.724L34.9772 26.947L34.7861 26.6338L32.3066 22.5882L32.6677 22.3652L35.2852 26.6338L35.3383 26.724Z" fill="black"/>
<path d="M37.1976 26.7453L36.8366 26.963L36.6348 26.6338L34.166 22.5882L34.527 22.3652L37.1286 26.6338L37.1976 26.7453Z" fill="black"/>
<path d="M24.1 22.7466C23.4772 22.7466 22.9707 22.24 22.9707 21.6172H23.3954C23.3954 22.0059 23.7114 22.3218 24.1 22.3218C24.4881 22.3218 24.8045 22.0059 24.8045 21.6172H25.2293C25.2293 22.24 24.7228 22.7466 24.1 22.7466Z" fill="black"/>
<path d="M29.0868 26.8477H28.6621V28.087H29.0868V26.8477Z" fill="black"/>
<path d="M27.0986 26.8477H26.6738V28.087H27.0986V26.8477Z" fill="black"/>
<path d="M25.1122 26.8477H24.6875V28.087H25.1122V26.8477Z" fill="black"/>
<path d="M23.1298 26.8477H22.7051V28.087H23.1298V26.8477Z" fill="black"/>
<path d="M25.8777 0C11.6062 0 0 11.6072 0 25.8745C0 40.1419 11.6062 51.7544 25.8777 51.7544C40.1438 51.7544 51.75 40.1419 51.75 25.8745C51.75 11.6072 40.1438 0 25.8777 0ZM25.8777 51.3301C11.8451 51.3301 0.424746 39.9083 0.424746 25.8751C0.424746 24.7759 0.493767 23.6981 0.63181 22.6361C2.22461 10.1263 12.9388 0.425313 25.8777 0.425313C38.5935 0.425313 49.1644 9.80238 51.0332 22.0042C51.0492 22.0945 51.0598 22.1901 51.0704 22.2804C51.2403 23.4538 51.3253 24.6538 51.3253 25.8751C51.3253 39.9083 39.9102 51.3301 25.8777 51.3301Z" fill="black"/>
<path d="M26.9931 23.9164V23.9377L30.9326 27.877H30.3327L26.5684 24.1129V23.3324H26.9931C26.9931 23.4386 27.0781 23.5182 27.1789 23.5182C27.2798 23.5182 27.3701 23.4333 27.3701 23.3324V20.5978L27.8054 20.4863L31.5485 26.6351H32.9289L33.1148 26.943L33.4758 26.72L33.4227 26.6351H34.7872L34.9783 26.9483L35.3394 26.7253L35.2863 26.6351H36.6348L36.8366 26.9643L37.1976 26.7466L37.1286 26.6351H38.509L38.7055 26.9589L39.0718 26.7359L39.0081 26.6351H40.3726L40.5691 26.9589L40.9354 26.7412L40.8717 26.6351H44.6838L38.5037 22.6851L38.5197 22.6586H39.247L46.1385 27.0609H31.3096L27.7948 21.2886V23.3329C27.7948 23.6727 27.5187 23.9435 27.1789 23.9435C27.1152 23.9425 27.0515 23.9318 26.9931 23.9164Z" fill="black"/>
</svg>
